<svg xmlns="http://www.w3.org/2000/svg" width="657.853" height="643.083" viewBox="0 0 657.853 643.083">
  <g id="Groupe_68" data-name="Groupe 68" transform="translate(0)">
    <path id="Tracé_47" data-name="Tracé 47" d="M272.716,41.614c-14.2,19.634-5.031,31.3-20.269,50.229-27.681,34.384-72.655,23.054-126.9,33.484C62.21,137.51-.436,188.257,0,282.114c.348,74.049,48.511,119.144,112.33,117.271,87.725-2.571,32.752,76.429,175.364,22.913,34.032-12.77,57.043,17.411,102.221,29.081,32.284,8.338,42.179,10.083,53.753,6.168,32.194-10.892,53.3-57.434,53.753-98.7.929-83.7-83.366-120.07-65.21-176.243,8.635-26.7,30.178-26.2,39.655-60.8,7.525-27.47,3.53-62.786-15.863-87.241C412.737-20,305.782-4.1,272.716,41.614Z" transform="matrix(0.875, 0.485, -0.485, 0.875, 222.79, 0)" fill="#484991" opacity="0.717"/>
  </g>
  <ellipse id="Ellipse_58" data-name="Ellipse 58" cx="26.532" cy="26.532" rx="26.532" ry="26.532" transform="translate(549.001 328.175)" fill="#9e88bb" opacity="0.613"/>
  <ellipse id="Ellipse_59" data-name="Ellipse 59" cx="13.902" cy="13.902" rx="13.902" ry="13.902" transform="translate(136.44 234.497)" fill="#9e88bb" opacity="0.613"/>
  <path id="Tracé_48" data-name="Tracé 48" d="M216.44,33.027c-11.273,15.582-3.993,24.842-16.086,39.864-21.969,27.288-57.662,18.3-100.711,26.574C49.373,109.134-.346,149.41,0,223.9c.276,58.768,38.5,94.558,89.151,93.072,69.623-2.04,25.993,60.658,139.177,18.185,27.01-10.135,45.272,13.818,81.127,23.08,25.622,6.617,33.476,8,42.661,4.9,25.55-8.644,42.3-45.582,42.661-78.331.738-66.426-66.163-95.293-51.754-139.875,6.853-21.194,23.951-20.793,31.472-48.256,5.972-21.8,2.8-49.83-12.589-69.238C327.567-15.875,242.683-3.251,216.44,33.027Z" transform="translate(469.415 163.064) rotate(74)" fill="#a78fbf" opacity="0.717"/>
  <g id="Groupe_11" data-name="Groupe 11" transform="translate(248.014 193.116)">
    <path id="Tracé_50" data-name="Tracé 50" d="M679.977,777.295q-10.133-24.471-21.63-48.334c-2.295-4.751-4.423-13.78-10.242-15.269-2.869-.734-6.606-.062-9.539-.021-1.585.022-3.167.077-4.75.126a1.422,1.422,0,0,0-.036-.746c-7.028-22.4-14.723-44.636-22.8-66.738,7.532,5.423,16.041,9.838,24.162,14.13a1.477,1.477,0,0,0,2.141-1.646c-1.665-8.011-5.256-15.1-9.208-22.2a172.372,172.372,0,0,1-12.6-27.535c-2.262-6.522-3.71-16.416-9.149-21.193-2.6-2.288-6.22-3.625-9.25-5.19-4.268-2.2-8.51-4.507-12.864-6.54-7.77-19.835-15.329-39.923-24.341-59.226-7.341-15.725-16.951-30.782-32.606-39.236a1.466,1.466,0,0,0-2.133.868c-4.046,22.515-1.3,45.957,1.284,68.5q3.036,26.455,8.3,52.594a.691.691,0,0,0-.334.34c-3.44,7.685-7.485,15.506-9.955,23.578-2.3,7.511-.533,13.95,1.742,21.251q8.445,27.088,17.452,54a1.478,1.478,0,0,0,2.826,0c2.452-8.743,5.515-17.575,7.464-26.488a576.934,576.934,0,0,0,26.932,67.237.62.62,0,0,0,.747.374c-4.753,9.112-1.978,19.845,1.782,29.148,5.724,14.163,11.81,28.191,17.72,42.277a1.6,1.6,0,0,0,2.875.375q6.967-11.08,13.92-22.17A33.036,33.036,0,0,0,628.676,812.5a1.256,1.256,0,0,0,2.114-.875c.6-4.927,1.162-9.858,1.727-14.789l17.063,20.348a1.4,1.4,0,0,0,2.374-.983,49.7,49.7,0,0,0-4.507-20.294c4.358,1.327,10.73,3.1,11.838-1.38.527-2.13-1.409-5.221-2.181-7.065a66.876,66.876,0,0,0-7.951-14.517,245.855,245.855,0,0,1,28.9,6.271C679.1,779.522,680.445,778.426,679.977,777.295ZM606.1,591.728c2.391,3.4,3.41,8.595,4.746,12.515,1.391,4.083,2.752,8.176,4.277,12.213,5.17,13.674,14.672,25.758,18.562,39.86-8.242-4.611-16.074-9.889-24.327-14.439-7.742-21.043-15.809-41.965-23.979-62.785,2.719,1.548,5.488,3.014,8.233,4.515C597.6,585.788,603.387,587.871,606.1,591.728Zm-78.48-110.475c15.858,9.531,24.819,26.189,32.053,42.736q1.962,4.489,3.868,9.008a31.593,31.593,0,0,1-34.291,12.532,1.072,1.072,0,0,0-.306-.021C526.562,524.381,524.082,502.348,527.616,481.254Zm24.7,186.819c-3.13,8.1-5.174,16.768-7.411,25.228q-7.092-21.527-13.939-43.133c-2.708-8.545-6.285-16.821-3.907-25.889,1.942-7.409,5.413-14.612,8.234-21.781q.941,4.576,1.946,9.141,6.294,28.438,15.21,56.214A1.5,1.5,0,0,0,552.318,668.073Zm29.519,69.883c-17.734-40.158-32-81.781-41.6-124.644a621.125,621.125,0,0,1-11.04-65.526,32.844,32.844,0,0,0,35.649-11.664c6.889,16.435,13.348,33.074,19.8,49.668,16.366,42.056,30.977,84.659,45.973,127.206-5.421-.092-10.866.31-16.281.542-3.164.135-6.574-.129-9.459,1.279-.493-.3-1.3.083-1.2.7-3.475,2.291-6.372,6.335-9.172,9.277-4.186,4.4-8.523,8.648-12.644,13.107C581.857,737.916,581.853,737.937,581.838,737.956Zm33.687,49.5Q609.2,797.5,602.886,807.547l-13.73-32.715c-4.879-11.624-11.166-24.9-2.907-36.552a1.239,1.239,0,0,0-.187-1.77c5.433-5.548,10.612-11.681,16.607-16.448a15.7,15.7,0,0,1,2.295-1.489c5.983,14.159,12.47,28.119,18.648,42.193,1.45,3.3,3.26,6.543,2.118,10.5-.53,1.833-2.4,3.8-3.4,5.4Zm38.153-.733c1.451,3.221,4.769,6.883-.883,7.156-2.351.114-5.367-1.1-7.638-1.566a1.434,1.434,0,0,0-1.6,2.079,46.551,46.551,0,0,1,5.366,17.731L632.5,792.716c-.823-.973-2.147-.082-2.259.936q-.843,7.69-1.65,15.384A31.705,31.705,0,0,1,619.31,787.3q.472-.753.944-1.5c2.82-4.5,8.623-10.526,9.344-16.3a1.117,1.117,0,0,0,.81.52c5.618.878,11.188,1.707,16.729,2.6a1.147,1.147,0,0,0-.254,1.534C649.191,778.333,651.711,782.36,653.678,786.725Zm-22.9-19.476a1.258,1.258,0,0,0-1.138.674,7.908,7.908,0,0,0-.071-.88c-.578-3.658-3.413-7.908-4.915-11.231q-3.1-6.867-6.284-13.7c-3.81-8.157-7.659-16.315-11.821-24.3,6.221-2.607,14.028-1.914,20.952-2.146,5.7.1,11.73-.313,17.158.641,7.507,1.32,10.844,13.525,13.794,19.813q9.1,19.4,17.319,39.19C661.245,771.181,645.851,767.666,630.782,767.249Z" transform="translate(-523.084 -477.497)" fill="#fff" stroke="#fdfdfd" stroke-width="2"/>
    <path id="Tracé_51" data-name="Tracé 51" d="M553.906,550.308a.676.676,0,0,0-.112.021,1.417,1.417,0,0,0-.747-.34c-5.9-.781-10.49,6.4-10.548,11.562-.068,6.1,5.188,10.285,11.032,10.269,5.867-.015,11.061-4.221,10.991-10.325A11.2,11.2,0,0,0,553.906,550.308Zm-.375,18.649c-4.32-.016-8.179-2.833-8.176-7.406,0-5.115,3.73-7.667,8.022-9.123a1.444,1.444,0,0,0,.478-.273C563.345,553.823,564.5,568.992,553.532,568.957Z" transform="translate(-519.023 -462.347)" fill="#fff" stroke="#fdfdfd" stroke-width="2"/>
    <path id="Tracé_52" data-name="Tracé 52" d="M568.966,579.932c-3.277-2.673-11.454-2.907-12.971,1.849a9.966,9.966,0,0,0-2.088,12.562c3.225,5.254,11.344,5.936,15.787,1.9C574.363,592,573.765,583.847,568.966,579.932Zm-1.734,14.806c-3.487,2.475-9.316,1.68-11.32-2.331a8.141,8.141,0,0,1,.677-7.991,1.317,1.317,0,0,0,1.349-.512c1.273-1.793,2.185-3.019,4.571-3.239a6.553,6.553,0,0,1,5.522,2.15C571.005,586.108,571.022,592.046,567.232,594.738Z" transform="translate(-516.924 -456.468)" fill="#fff" stroke="#fdfdfd" stroke-width="2"/>
  </g>
</svg>
