<svg xmlns="http://www.w3.org/2000/svg" width="1287.75" height="1310.667" viewBox="0 0 1287.75 1310.667">
  <path id="Tracé_261" data-name="Tracé 261" d="M517.219,78.923c-26.94,37.236-9.542,59.364-38.441,95.263-52.5,65.21-137.793,43.723-240.664,63.5C117.984,260.794-.826,357.039,0,535.042c.659,140.437,92,225.962,213.04,222.411C379.419,752.577,275.16,902.4,545.63,800.909c64.544-24.22,108.184,33.02,193.867,55.154,61.228,15.813,80,19.122,101.945,11.7C902.5,847.1,942.525,758.836,943.387,680.577,945.15,521.842,785.28,452.86,819.714,346.324c16.377-50.646,57.234-49.689,75.208-115.317,14.272-52.1,6.7-119.077-30.085-165.456C782.775-37.935,579.931-7.768,517.219,78.923Z" transform="translate(556.813 1265.879) rotate(-123)" fill="#ba9ec9" opacity="0.569"/>
  <path id="Tracé_262" data-name="Tracé 262" d="M517.219,78.923c-26.94,37.236-9.542,59.364-38.441,95.263-52.5,65.21-137.793,43.723-240.664,63.5C117.984,260.794-.826,357.039,0,535.042c.659,140.437,92,225.962,213.04,222.411C379.419,752.577,275.16,902.4,545.63,800.909c64.544-24.22,108.184,33.02,193.867,55.154,61.228,15.813,80,19.122,101.945,11.7C902.5,847.1,942.525,758.836,943.387,680.577,945.15,521.842,785.28,452.86,819.714,346.324c16.377-50.646,57.234-49.689,75.208-115.317,14.272-52.1,6.7-119.077-30.085-165.456C782.775-37.935,579.931-7.768,517.219,78.923Z" transform="translate(513.814 1310.667) rotate(-123)" fill="#ba9ec9" opacity="0.897"/>
</svg>
