<svg xmlns="http://www.w3.org/2000/svg" width="1390.43" height="1400.096" viewBox="0 0 1390.43 1400.096">
<path id="Tracé_55" data-name="Tracé 55" d="M680.609,689.605c-29.4,40.638-10.414,64.787-41.953,103.965-57.293,71.167-150.381,47.717-262.649,69.305-131.1,25.215-260.767,130.252-259.86,324.516.72,153.266,100.408,246.6,232.5,242.728,181.573-5.321,67.79,158.192,362.967,47.426,70.44-26.432,118.067,36.037,211.576,60.192,66.821,17.257,87.3,20.869,111.258,12.767,66.634-22.543,110.317-118.876,111.258-204.283,1.923-173.236-172.551-248.52-134.971-364.787,17.873-55.273,62.462-54.228,82.079-125.851,15.576-56.857,7.307-129.954-32.833-180.57C970.423,562.073,749.049,595,680.609,689.605Z" transform="matrix(-0.643, -0.766, 0.766, -0.643, 274.169, 1876.971)" fill="#b096c4" opacity="0.478"/>
<path id="Tracé_56" data-name="Tracé 56" d="M680.609,689.605c-29.4,40.638-10.414,64.787-41.953,103.965-57.293,71.167-150.381,47.717-262.649,69.305-131.1,25.215-260.767,130.252-259.86,324.516.72,153.266,100.408,246.6,232.5,242.728,181.573-5.321,67.79,158.192,362.967,47.426,70.44-26.432,118.067,36.037,211.576,60.192,66.821,17.257,87.3,20.869,111.258,12.767,66.634-22.543,110.317-118.876,111.258-204.283,1.923-173.236-172.551-248.52-134.971-364.787,17.873-55.273,62.462-54.228,82.079-125.851,15.576-56.857,7.307-129.954-32.833-180.57C970.423,562.073,749.049,595,680.609,689.605Z" transform="matrix(-0.643, -0.766, 0.766, -0.643, 210.169, 1876.972)" fill="#41427f"/>

</svg>
