<svg id="trait-i" xmlns="http://www.w3.org/2000/svg" width="1950.493" height="4987.83" viewBox="0 0 1950.493 4987.83">
<path id="Tracé_13" data-name="Tracé 13" d="M340.008,1969.922s69.893,118.923,240.914,195.743,235.1,59.409,443.171,111.535c287.152,71.938,543.55,93.368,640.282,155.076,166.492,106.21,168.223,296.574,132.24,392.3s-168.75,313.953-566.032,441.288-852.532,18.3-1023.1,68.052S-4.441,3474.552,39.333,3652.223s123.432,405.646,686.773,481.005,204.524,461.74,738.317,285.625c406.1-80.548,374.685,271.545,330.762,352.886-16.3,30.178-94.3,175.1-261.941,150.095-42.679,25.044-579.406,30.049-926.376,189.879S173.959,5384.224,117.76,5441.052s-196.1,207.035-219.681,377.711c-5.838,42.264-16.406,88.169-21.23,133.71-6.994,66.017-1.666,130.968,48.887,181.278,113.905,132.826,1042.988-275.978,834.232,564.407-76.274,347.646,823.662,263,837.53,180.549" transform="translate(128.06 -1966.5)" fill="none" stroke="#af96c3" stroke-linecap="round" stroke-width="5" stroke-dasharray="10"/>
</svg>
